<svg xmlns="http://www.w3.org/2000/svg" xmlns:xlink="http://www.w3.org/1999/xlink" width="600" height="400" viewBox="0 0 2400 1600">
<defs>
  <clipPath id="clip250">
    <rect x="0" y="0" width="2400" height="1600"></rect>
  </clipPath>
</defs>
<path clip-path="url(#clip250)" d="M0 1600 L2400 1600 L2400 0 L0 0  Z" fill="#282a36" fill-rule="evenodd" fill-opacity="1"></path>
<defs>
  <clipPath id="clip251">
    <rect x="480" y="0" width="1681" height="1600"></rect>
  </clipPath>
</defs>
<path clip-path="url(#clip250)" d="M219.38 1410.9 L2352.76 1410.9 L2352.76 47.2441 L219.38 47.2441  Z" fill="#30343b" fill-rule="evenodd" fill-opacity="1"></path>
<defs>
  <clipPath id="clip252">
    <rect x="219" y="47" width="2134" height="1365"></rect>
  </clipPath>
</defs>
<polyline clip-path="url(#clip252)" style="stroke:#f8f8f2; stroke-linecap:round; stroke-linejoin:round; stroke-width:2; stroke-opacity:0.1; fill:none" points="487.961,1410.9 487.961,47.2441 "></polyline>
<polyline clip-path="url(#clip252)" style="stroke:#f8f8f2; stroke-linecap:round; stroke-linejoin:round; stroke-width:2; stroke-opacity:0.1; fill:none" points="765.563,1410.9 765.563,47.2441 "></polyline>
<polyline clip-path="url(#clip252)" style="stroke:#f8f8f2; stroke-linecap:round; stroke-linejoin:round; stroke-width:2; stroke-opacity:0.1; fill:none" points="1043.17,1410.9 1043.17,47.2441 "></polyline>
<polyline clip-path="url(#clip252)" style="stroke:#f8f8f2; stroke-linecap:round; stroke-linejoin:round; stroke-width:2; stroke-opacity:0.1; fill:none" points="1320.77,1410.9 1320.77,47.2441 "></polyline>
<polyline clip-path="url(#clip252)" style="stroke:#f8f8f2; stroke-linecap:round; stroke-linejoin:round; stroke-width:2; stroke-opacity:0.1; fill:none" points="1598.37,1410.9 1598.37,47.2441 "></polyline>
<polyline clip-path="url(#clip252)" style="stroke:#f8f8f2; stroke-linecap:round; stroke-linejoin:round; stroke-width:2; stroke-opacity:0.1; fill:none" points="1875.97,1410.9 1875.97,47.2441 "></polyline>
<polyline clip-path="url(#clip252)" style="stroke:#f8f8f2; stroke-linecap:round; stroke-linejoin:round; stroke-width:2; stroke-opacity:0.1; fill:none" points="2153.58,1410.9 2153.58,47.2441 "></polyline>
<polyline clip-path="url(#clip252)" style="stroke:#f8f8f2; stroke-linecap:round; stroke-linejoin:round; stroke-width:2; stroke-opacity:0.1; fill:none" points="219.38,1373.75 2352.76,1373.75 "></polyline>
<polyline clip-path="url(#clip252)" style="stroke:#f8f8f2; stroke-linecap:round; stroke-linejoin:round; stroke-width:2; stroke-opacity:0.1; fill:none" points="219.38,1053.44 2352.76,1053.44 "></polyline>
<polyline clip-path="url(#clip252)" style="stroke:#f8f8f2; stroke-linecap:round; stroke-linejoin:round; stroke-width:2; stroke-opacity:0.1; fill:none" points="219.38,733.121 2352.76,733.121 "></polyline>
<polyline clip-path="url(#clip252)" style="stroke:#f8f8f2; stroke-linecap:round; stroke-linejoin:round; stroke-width:2; stroke-opacity:0.1; fill:none" points="219.38,412.806 2352.76,412.806 "></polyline>
<polyline clip-path="url(#clip252)" style="stroke:#f8f8f2; stroke-linecap:round; stroke-linejoin:round; stroke-width:2; stroke-opacity:0.1; fill:none" points="219.38,92.4899 2352.76,92.4899 "></polyline>
<polyline clip-path="url(#clip250)" style="stroke:#f8f8f2; stroke-linecap:round; stroke-linejoin:round; stroke-width:4; stroke-opacity:1; fill:none" points="219.38,1410.9 2352.76,1410.9 "></polyline>
<polyline clip-path="url(#clip250)" style="stroke:#f8f8f2; stroke-linecap:round; stroke-linejoin:round; stroke-width:4; stroke-opacity:1; fill:none" points="487.961,1410.9 487.961,1392 "></polyline>
<polyline clip-path="url(#clip250)" style="stroke:#f8f8f2; stroke-linecap:round; stroke-linejoin:round; stroke-width:4; stroke-opacity:1; fill:none" points="765.563,1410.9 765.563,1392 "></polyline>
<polyline clip-path="url(#clip250)" style="stroke:#f8f8f2; stroke-linecap:round; stroke-linejoin:round; stroke-width:4; stroke-opacity:1; fill:none" points="1043.17,1410.9 1043.17,1392 "></polyline>
<polyline clip-path="url(#clip250)" style="stroke:#f8f8f2; stroke-linecap:round; stroke-linejoin:round; stroke-width:4; stroke-opacity:1; fill:none" points="1320.77,1410.9 1320.77,1392 "></polyline>
<polyline clip-path="url(#clip250)" style="stroke:#f8f8f2; stroke-linecap:round; stroke-linejoin:round; stroke-width:4; stroke-opacity:1; fill:none" points="1598.37,1410.9 1598.37,1392 "></polyline>
<polyline clip-path="url(#clip250)" style="stroke:#f8f8f2; stroke-linecap:round; stroke-linejoin:round; stroke-width:4; stroke-opacity:1; fill:none" points="1875.97,1410.9 1875.97,1392 "></polyline>
<polyline clip-path="url(#clip250)" style="stroke:#f8f8f2; stroke-linecap:round; stroke-linejoin:round; stroke-width:4; stroke-opacity:1; fill:none" points="2153.58,1410.9 2153.58,1392 "></polyline>
<path clip-path="url(#clip250)" d="M383.864 1485.02 L400.183 1485.02 L400.183 1488.96 L378.239 1488.96 L378.239 1485.02 Q380.901 1482.27 385.484 1477.64 Q390.091 1472.98 391.271 1471.64 Q393.517 1469.12 394.396 1467.38 Q395.299 1465.62 395.299 1463.93 Q395.299 1461.18 393.355 1459.44 Q391.433 1457.71 388.332 1457.71 Q386.132 1457.71 383.679 1458.47 Q381.248 1459.23 378.47 1460.79 L378.47 1456.06 Q381.295 1454.93 383.748 1454.35 Q386.202 1453.77 388.239 1453.77 Q393.609 1453.77 396.804 1456.46 Q399.998 1459.14 399.998 1463.63 Q399.998 1465.76 399.188 1467.68 Q398.401 1469.58 396.294 1472.17 Q395.716 1472.85 392.614 1476.06 Q389.512 1479.26 383.864 1485.02 Z" fill="#f8f8f2" fill-rule="nonzero" fill-opacity="1"></path><path clip-path="url(#clip250)" d="M409.998 1483.08 L414.882 1483.08 L414.882 1488.96 L409.998 1488.96 L409.998 1483.08 Z" fill="#f8f8f2" fill-rule="nonzero" fill-opacity="1"></path><path clip-path="url(#clip250)" d="M435.067 1457.48 Q431.456 1457.48 429.628 1461.04 Q427.822 1464.58 427.822 1471.71 Q427.822 1478.82 429.628 1482.38 Q431.456 1485.92 435.067 1485.92 Q438.702 1485.92 440.507 1482.38 Q442.336 1478.82 442.336 1471.71 Q442.336 1464.58 440.507 1461.04 Q438.702 1457.48 435.067 1457.48 M435.067 1453.77 Q440.878 1453.77 443.933 1458.38 Q447.012 1462.96 447.012 1471.71 Q447.012 1480.44 443.933 1485.04 Q440.878 1489.63 435.067 1489.63 Q429.257 1489.63 426.179 1485.04 Q423.123 1480.44 423.123 1471.71 Q423.123 1462.96 426.179 1458.38 Q429.257 1453.77 435.067 1453.77 Z" fill="#f8f8f2" fill-rule="nonzero" fill-opacity="1"></path><path clip-path="url(#clip250)" d="M465.229 1457.48 Q461.618 1457.48 459.789 1461.04 Q457.984 1464.58 457.984 1471.71 Q457.984 1478.82 459.789 1482.38 Q461.618 1485.92 465.229 1485.92 Q468.864 1485.92 470.669 1482.38 Q472.498 1478.82 472.498 1471.71 Q472.498 1464.58 470.669 1461.04 Q468.864 1457.48 465.229 1457.48 M465.229 1453.77 Q471.039 1453.77 474.095 1458.38 Q477.174 1462.96 477.174 1471.71 Q477.174 1480.44 474.095 1485.04 Q471.039 1489.63 465.229 1489.63 Q459.419 1489.63 456.34 1485.04 Q453.285 1480.44 453.285 1471.71 Q453.285 1462.96 456.34 1458.38 Q459.419 1453.77 465.229 1453.77 Z" fill="#f8f8f2" fill-rule="nonzero" fill-opacity="1"></path><path clip-path="url(#clip250)" d="M513.562 1463.49 L502.984 1474.12 L513.562 1484.7 L510.808 1487.5 L500.183 1476.87 L489.558 1487.5 L486.826 1484.7 L497.382 1474.12 L486.826 1463.49 L489.558 1460.69 L500.183 1471.32 L510.808 1460.69 L513.562 1463.49 Z" fill="#f8f8f2" fill-rule="nonzero" fill-opacity="1"></path><path clip-path="url(#clip250)" d="M525.923 1485.02 L533.562 1485.02 L533.562 1458.66 L525.252 1460.32 L525.252 1456.06 L533.516 1454.4 L538.192 1454.4 L538.192 1485.02 L545.831 1485.02 L545.831 1488.96 L525.923 1488.96 L525.923 1485.02 Z" fill="#f8f8f2" fill-rule="nonzero" fill-opacity="1"></path><path clip-path="url(#clip250)" d="M565.275 1457.48 Q561.664 1457.48 559.835 1461.04 Q558.03 1464.58 558.03 1471.71 Q558.03 1478.82 559.835 1482.38 Q561.664 1485.92 565.275 1485.92 Q568.909 1485.92 570.715 1482.38 Q572.544 1478.82 572.544 1471.71 Q572.544 1464.58 570.715 1461.04 Q568.909 1457.48 565.275 1457.48 M565.275 1453.77 Q571.085 1453.77 574.141 1458.38 Q577.219 1462.96 577.219 1471.71 Q577.219 1480.44 574.141 1485.04 Q571.085 1489.63 565.275 1489.63 Q559.465 1489.63 556.386 1485.04 Q553.331 1480.44 553.331 1471.71 Q553.331 1462.96 556.386 1458.38 Q559.465 1453.77 565.275 1453.77 Z" fill="#f8f8f2" fill-rule="nonzero" fill-opacity="1"></path><path clip-path="url(#clip250)" d="M589.896 1436.78 L580.304 1451.77 L589.896 1451.77 L589.896 1436.78 M588.899 1433.47 L593.676 1433.47 L593.676 1451.77 L597.682 1451.77 L597.682 1454.93 L593.676 1454.93 L593.676 1461.55 L589.896 1461.55 L589.896 1454.93 L577.219 1454.93 L577.219 1451.26 L588.899 1433.47 Z" fill="#f8f8f2" fill-rule="nonzero" fill-opacity="1"></path><path clip-path="url(#clip250)" d="M670.865 1458.47 L659.059 1476.92 L670.865 1476.92 L670.865 1458.47 M669.638 1454.4 L675.517 1454.4 L675.517 1476.92 L680.448 1476.92 L680.448 1480.81 L675.517 1480.81 L675.517 1488.96 L670.865 1488.96 L670.865 1480.81 L655.263 1480.81 L655.263 1476.29 L669.638 1454.4 Z" fill="#f8f8f2" fill-rule="nonzero" fill-opacity="1"></path><path clip-path="url(#clip250)" d="M688.179 1483.08 L693.064 1483.08 L693.064 1488.96 L688.179 1488.96 L688.179 1483.08 Z" fill="#f8f8f2" fill-rule="nonzero" fill-opacity="1"></path><path clip-path="url(#clip250)" d="M713.249 1457.48 Q709.638 1457.48 707.809 1461.04 Q706.003 1464.58 706.003 1471.71 Q706.003 1478.82 707.809 1482.38 Q709.638 1485.92 713.249 1485.92 Q716.883 1485.92 718.688 1482.38 Q720.517 1478.82 720.517 1471.71 Q720.517 1464.58 718.688 1461.04 Q716.883 1457.48 713.249 1457.48 M713.249 1453.77 Q719.059 1453.77 722.114 1458.38 Q725.193 1462.96 725.193 1471.71 Q725.193 1480.44 722.114 1485.04 Q719.059 1489.63 713.249 1489.63 Q707.439 1489.63 704.36 1485.04 Q701.304 1480.44 701.304 1471.71 Q701.304 1462.96 704.36 1458.38 Q707.439 1453.77 713.249 1453.77 Z" fill="#f8f8f2" fill-rule="nonzero" fill-opacity="1"></path><path clip-path="url(#clip250)" d="M743.411 1457.48 Q739.799 1457.48 737.971 1461.04 Q736.165 1464.58 736.165 1471.71 Q736.165 1478.82 737.971 1482.38 Q739.799 1485.92 743.411 1485.92 Q747.045 1485.92 748.85 1482.38 Q750.679 1478.82 750.679 1471.71 Q750.679 1464.58 748.85 1461.04 Q747.045 1457.48 743.411 1457.48 M743.411 1453.77 Q749.221 1453.77 752.276 1458.38 Q755.355 1462.96 755.355 1471.71 Q755.355 1480.44 752.276 1485.04 Q749.221 1489.63 743.411 1489.63 Q737.6 1489.63 734.522 1485.04 Q731.466 1480.44 731.466 1471.71 Q731.466 1462.96 734.522 1458.38 Q737.6 1453.77 743.411 1453.77 Z" fill="#f8f8f2" fill-rule="nonzero" fill-opacity="1"></path><path clip-path="url(#clip250)" d="M791.744 1463.49 L781.165 1474.12 L791.744 1484.7 L788.989 1487.5 L778.364 1476.87 L767.739 1487.5 L765.008 1484.7 L775.563 1474.12 L765.008 1463.49 L767.739 1460.69 L778.364 1471.32 L788.989 1460.69 L791.744 1463.49 Z" fill="#f8f8f2" fill-rule="nonzero" fill-opacity="1"></path><path clip-path="url(#clip250)" d="M804.105 1485.02 L811.744 1485.02 L811.744 1458.66 L803.433 1460.32 L803.433 1456.06 L811.697 1454.4 L816.373 1454.4 L816.373 1485.02 L824.012 1485.02 L824.012 1488.96 L804.105 1488.96 L804.105 1485.02 Z" fill="#f8f8f2" fill-rule="nonzero" fill-opacity="1"></path><path clip-path="url(#clip250)" d="M843.456 1457.48 Q839.845 1457.48 838.017 1461.04 Q836.211 1464.58 836.211 1471.71 Q836.211 1478.82 838.017 1482.38 Q839.845 1485.92 843.456 1485.92 Q847.091 1485.92 848.896 1482.38 Q850.725 1478.82 850.725 1471.71 Q850.725 1464.58 848.896 1461.04 Q847.091 1457.48 843.456 1457.48 M843.456 1453.77 Q849.266 1453.77 852.322 1458.38 Q855.401 1462.96 855.401 1471.71 Q855.401 1480.44 852.322 1485.04 Q849.266 1489.63 843.456 1489.63 Q837.646 1489.63 834.567 1485.04 Q831.512 1480.44 831.512 1471.71 Q831.512 1462.96 834.567 1458.38 Q837.646 1453.77 843.456 1453.77 Z" fill="#f8f8f2" fill-rule="nonzero" fill-opacity="1"></path><path clip-path="url(#clip250)" d="M868.077 1436.78 L858.485 1451.77 L868.077 1451.77 L868.077 1436.78 M867.08 1433.47 L871.857 1433.47 L871.857 1451.77 L875.864 1451.77 L875.864 1454.93 L871.857 1454.93 L871.857 1461.55 L868.077 1461.55 L868.077 1454.93 L855.401 1454.93 L855.401 1451.26 L867.08 1433.47 Z" fill="#f8f8f2" fill-rule="nonzero" fill-opacity="1"></path><path clip-path="url(#clip250)" d="M945.701 1469.81 Q942.553 1469.81 940.701 1471.97 Q938.872 1474.12 938.872 1477.87 Q938.872 1481.6 940.701 1483.77 Q942.553 1485.92 945.701 1485.92 Q948.849 1485.92 950.678 1483.77 Q952.53 1481.6 952.53 1477.87 Q952.53 1474.12 950.678 1471.97 Q948.849 1469.81 945.701 1469.81 M954.983 1455.16 L954.983 1459.42 Q953.224 1458.59 951.419 1458.15 Q949.636 1457.71 947.877 1457.71 Q943.247 1457.71 940.794 1460.83 Q938.363 1463.96 938.016 1470.28 Q939.382 1468.26 941.442 1467.2 Q943.502 1466.11 945.979 1466.11 Q951.187 1466.11 954.196 1469.28 Q957.229 1472.43 957.229 1477.87 Q957.229 1483.19 954.081 1486.41 Q950.932 1489.63 945.701 1489.63 Q939.706 1489.63 936.534 1485.04 Q933.363 1480.44 933.363 1471.71 Q933.363 1463.52 937.252 1458.66 Q941.141 1453.77 947.692 1453.77 Q949.451 1453.77 951.233 1454.12 Q953.039 1454.47 954.983 1455.16 Z" fill="#f8f8f2" fill-rule="nonzero" fill-opacity="1"></path><path clip-path="url(#clip250)" d="M965.284 1483.08 L970.168 1483.08 L970.168 1488.96 L965.284 1488.96 L965.284 1483.08 Z" fill="#f8f8f2" fill-rule="nonzero" fill-opacity="1"></path><path clip-path="url(#clip250)" d="M990.354 1457.48 Q986.742 1457.48 984.914 1461.04 Q983.108 1464.58 983.108 1471.71 Q983.108 1478.82 984.914 1482.38 Q986.742 1485.92 990.354 1485.92 Q993.988 1485.92 995.793 1482.38 Q997.622 1478.82 997.622 1471.71 Q997.622 1464.58 995.793 1461.04 Q993.988 1457.48 990.354 1457.48 M990.354 1453.77 Q996.164 1453.77 999.219 1458.38 Q1002.3 1462.96 1002.3 1471.71 Q1002.3 1480.44 999.219 1485.04 Q996.164 1489.63 990.354 1489.63 Q984.543 1489.63 981.465 1485.04 Q978.409 1480.44 978.409 1471.71 Q978.409 1462.96 981.465 1458.38 Q984.543 1453.77 990.354 1453.77 Z" fill="#f8f8f2" fill-rule="nonzero" fill-opacity="1"></path><path clip-path="url(#clip250)" d="M1020.52 1457.48 Q1016.9 1457.48 1015.08 1461.04 Q1013.27 1464.58 1013.27 1471.71 Q1013.27 1478.82 1015.08 1482.38 Q1016.9 1485.92 1020.52 1485.92 Q1024.15 1485.92 1025.96 1482.38 Q1027.78 1478.82 1027.78 1471.71 Q1027.78 1464.58 1025.96 1461.04 Q1024.15 1457.48 1020.52 1457.48 M1020.52 1453.77 Q1026.33 1453.77 1029.38 1458.38 Q1032.46 1462.96 1032.46 1471.71 Q1032.46 1480.44 1029.38 1485.04 Q1026.33 1489.63 1020.52 1489.63 Q1014.71 1489.63 1011.63 1485.04 Q1008.57 1480.44 1008.57 1471.71 Q1008.57 1462.96 1011.63 1458.38 Q1014.71 1453.77 1020.52 1453.77 Z" fill="#f8f8f2" fill-rule="nonzero" fill-opacity="1"></path><path clip-path="url(#clip250)" d="M1068.85 1463.49 L1058.27 1474.12 L1068.85 1484.7 L1066.09 1487.5 L1055.47 1476.87 L1044.84 1487.5 L1042.11 1484.7 L1052.67 1474.12 L1042.11 1463.49 L1044.84 1460.69 L1055.47 1471.32 L1066.09 1460.69 L1068.85 1463.49 Z" fill="#f8f8f2" fill-rule="nonzero" fill-opacity="1"></path><path clip-path="url(#clip250)" d="M1081.21 1485.02 L1088.85 1485.02 L1088.85 1458.66 L1080.54 1460.32 L1080.54 1456.06 L1088.8 1454.4 L1093.48 1454.4 L1093.48 1485.02 L1101.12 1485.02 L1101.12 1488.96 L1081.21 1488.96 L1081.21 1485.02 Z" fill="#f8f8f2" fill-rule="nonzero" fill-opacity="1"></path><path clip-path="url(#clip250)" d="M1120.56 1457.48 Q1116.95 1457.48 1115.12 1461.04 Q1113.32 1464.58 1113.32 1471.71 Q1113.32 1478.82 1115.12 1482.38 Q1116.95 1485.92 1120.56 1485.92 Q1124.2 1485.92 1126 1482.38 Q1127.83 1478.82 1127.83 1471.71 Q1127.83 1464.58 1126 1461.04 Q1124.2 1457.48 1120.56 1457.48 M1120.56 1453.77 Q1126.37 1453.77 1129.43 1458.38 Q1132.51 1462.96 1132.51 1471.71 Q1132.51 1480.44 1129.43 1485.04 Q1126.37 1489.63 1120.56 1489.63 Q1114.75 1489.63 1111.67 1485.04 Q1108.62 1480.44 1108.62 1471.71 Q1108.62 1462.96 1111.67 1458.38 Q1114.75 1453.77 1120.56 1453.77 Z" fill="#f8f8f2" fill-rule="nonzero" fill-opacity="1"></path><path clip-path="url(#clip250)" d="M1145.18 1436.78 L1135.59 1451.77 L1145.18 1451.77 L1145.18 1436.78 M1144.19 1433.47 L1148.96 1433.47 L1148.96 1451.77 L1152.97 1451.77 L1152.97 1454.93 L1148.96 1454.93 L1148.96 1461.55 L1145.18 1461.55 L1145.18 1454.93 L1132.51 1454.93 L1132.51 1451.26 L1144.19 1433.47 Z" fill="#f8f8f2" fill-rule="nonzero" fill-opacity="1"></path><path clip-path="url(#clip250)" d="M1222.77 1472.54 Q1219.44 1472.54 1217.52 1474.33 Q1215.62 1476.11 1215.62 1479.23 Q1215.62 1482.36 1217.52 1484.14 Q1219.44 1485.92 1222.77 1485.92 Q1226.1 1485.92 1228.03 1484.14 Q1229.95 1482.34 1229.95 1479.23 Q1229.95 1476.11 1228.03 1474.33 Q1226.13 1472.54 1222.77 1472.54 M1218.1 1470.55 Q1215.09 1469.81 1213.4 1467.75 Q1211.73 1465.69 1211.73 1462.73 Q1211.73 1458.59 1214.67 1456.18 Q1217.63 1453.77 1222.77 1453.77 Q1227.93 1453.77 1230.87 1456.18 Q1233.81 1458.59 1233.81 1462.73 Q1233.81 1465.69 1232.12 1467.75 Q1230.46 1469.81 1227.47 1470.55 Q1230.85 1471.34 1232.72 1473.63 Q1234.62 1475.92 1234.62 1479.23 Q1234.62 1484.26 1231.54 1486.94 Q1228.49 1489.63 1222.77 1489.63 Q1217.05 1489.63 1213.97 1486.94 Q1210.92 1484.26 1210.92 1479.23 Q1210.92 1475.92 1212.82 1473.63 Q1214.72 1471.34 1218.1 1470.55 M1216.38 1463.17 Q1216.38 1465.85 1218.05 1467.36 Q1219.74 1468.86 1222.77 1468.86 Q1225.78 1468.86 1227.47 1467.36 Q1229.18 1465.85 1229.18 1463.17 Q1229.18 1460.48 1227.47 1458.98 Q1225.78 1457.48 1222.77 1457.48 Q1219.74 1457.48 1218.05 1458.98 Q1216.38 1460.48 1216.38 1463.17 Z" fill="#f8f8f2" fill-rule="nonzero" fill-opacity="1"></path><path clip-path="url(#clip250)" d="M1242.93 1483.08 L1247.82 1483.08 L1247.82 1488.96 L1242.93 1488.96 L1242.93 1483.08 Z" fill="#f8f8f2" fill-rule="nonzero" fill-opacity="1"></path><path clip-path="url(#clip250)" d="M1268 1457.48 Q1264.39 1457.48 1262.56 1461.04 Q1260.76 1464.58 1260.76 1471.71 Q1260.76 1478.82 1262.56 1482.38 Q1264.39 1485.92 1268 1485.92 Q1271.64 1485.92 1273.44 1482.38 Q1275.27 1478.82 1275.27 1471.71 Q1275.27 1464.58 1273.44 1461.04 Q1271.64 1457.48 1268 1457.48 M1268 1453.77 Q1273.81 1453.77 1276.87 1458.38 Q1279.95 1462.96 1279.95 1471.71 Q1279.95 1480.44 1276.87 1485.04 Q1273.81 1489.63 1268 1489.63 Q1262.19 1489.63 1259.11 1485.04 Q1256.06 1480.44 1256.06 1471.71 Q1256.06 1462.96 1259.11 1458.38 Q1262.19 1453.77 1268 1453.77 Z" fill="#f8f8f2" fill-rule="nonzero" fill-opacity="1"></path><path clip-path="url(#clip250)" d="M1298.16 1457.48 Q1294.55 1457.48 1292.72 1461.04 Q1290.92 1464.58 1290.92 1471.71 Q1290.92 1478.82 1292.72 1482.38 Q1294.55 1485.92 1298.16 1485.92 Q1301.8 1485.92 1303.6 1482.38 Q1305.43 1478.82 1305.43 1471.71 Q1305.43 1464.58 1303.6 1461.04 Q1301.8 1457.48 1298.16 1457.48 M1298.16 1453.77 Q1303.97 1453.77 1307.03 1458.38 Q1310.11 1462.96 1310.11 1471.71 Q1310.11 1480.44 1307.03 1485.04 Q1303.97 1489.63 1298.16 1489.63 Q1292.35 1489.63 1289.28 1485.04 Q1286.22 1480.44 1286.22 1471.71 Q1286.22 1462.96 1289.28 1458.38 Q1292.35 1453.77 1298.16 1453.77 Z" fill="#f8f8f2" fill-rule="nonzero" fill-opacity="1"></path><path clip-path="url(#clip250)" d="M1346.5 1463.49 L1335.92 1474.12 L1346.5 1484.7 L1343.74 1487.5 L1333.12 1476.87 L1322.49 1487.5 L1319.76 1484.7 L1330.32 1474.12 L1319.76 1463.49 L1322.49 1460.69 L1333.12 1471.32 L1343.74 1460.69 L1346.5 1463.49 Z" fill="#f8f8f2" fill-rule="nonzero" fill-opacity="1"></path><path clip-path="url(#clip250)" d="M1358.86 1485.02 L1366.5 1485.02 L1366.5 1458.66 L1358.19 1460.32 L1358.19 1456.06 L1366.45 1454.4 L1371.13 1454.4 L1371.13 1485.02 L1378.77 1485.02 L1378.77 1488.96 L1358.86 1488.96 L1358.86 1485.02 Z" fill="#f8f8f2" fill-rule="nonzero" fill-opacity="1"></path><path clip-path="url(#clip250)" d="M1398.21 1457.48 Q1394.6 1457.48 1392.77 1461.04 Q1390.96 1464.58 1390.96 1471.71 Q1390.96 1478.82 1392.77 1482.38 Q1394.6 1485.92 1398.21 1485.92 Q1401.84 1485.92 1403.65 1482.38 Q1405.48 1478.82 1405.48 1471.71 Q1405.48 1464.58 1403.65 1461.04 Q1401.84 1457.48 1398.21 1457.48 M1398.21 1453.77 Q1404.02 1453.77 1407.08 1458.38 Q1410.15 1462.96 1410.15 1471.71 Q1410.15 1480.44 1407.08 1485.04 Q1404.02 1489.63 1398.21 1489.63 Q1392.4 1489.63 1389.32 1485.04 Q1386.27 1480.44 1386.27 1471.71 Q1386.27 1462.96 1389.32 1458.38 Q1392.4 1453.77 1398.21 1453.77 Z" fill="#f8f8f2" fill-rule="nonzero" fill-opacity="1"></path><path clip-path="url(#clip250)" d="M1422.83 1436.78 L1413.24 1451.77 L1422.83 1451.77 L1422.83 1436.78 M1421.83 1433.47 L1426.61 1433.47 L1426.61 1451.77 L1430.62 1451.77 L1430.62 1454.93 L1426.61 1454.93 L1426.61 1461.55 L1422.83 1461.55 L1422.83 1454.93 L1410.15 1454.93 L1410.15 1451.26 L1421.83 1433.47 Z" fill="#f8f8f2" fill-rule="nonzero" fill-opacity="1"></path><path clip-path="url(#clip250)" d="M1491.34 1485.02 L1498.97 1485.02 L1498.97 1458.66 L1490.66 1460.32 L1490.66 1456.06 L1498.93 1454.4 L1503.6 1454.4 L1503.6 1485.02 L1511.24 1485.02 L1511.24 1488.96 L1491.34 1488.96 L1491.34 1485.02 Z" fill="#f8f8f2" fill-rule="nonzero" fill-opacity="1"></path><path clip-path="url(#clip250)" d="M1520.69 1483.08 L1525.57 1483.08 L1525.57 1488.96 L1520.69 1488.96 L1520.69 1483.08 Z" fill="#f8f8f2" fill-rule="nonzero" fill-opacity="1"></path><path clip-path="url(#clip250)" d="M1545.76 1457.48 Q1542.15 1457.48 1540.32 1461.04 Q1538.51 1464.58 1538.51 1471.71 Q1538.51 1478.82 1540.32 1482.38 Q1542.15 1485.92 1545.76 1485.92 Q1549.39 1485.92 1551.2 1482.38 Q1553.03 1478.82 1553.03 1471.71 Q1553.03 1464.58 1551.2 1461.04 Q1549.39 1457.48 1545.76 1457.48 M1545.76 1453.77 Q1551.57 1453.77 1554.62 1458.38 Q1557.7 1462.96 1557.7 1471.71 Q1557.7 1480.44 1554.62 1485.04 Q1551.57 1489.63 1545.76 1489.63 Q1539.95 1489.63 1536.87 1485.04 Q1533.81 1480.44 1533.81 1471.71 Q1533.81 1462.96 1536.87 1458.38 Q1539.95 1453.77 1545.76 1453.77 Z" fill="#f8f8f2" fill-rule="nonzero" fill-opacity="1"></path><path clip-path="url(#clip250)" d="M1575.92 1457.48 Q1572.31 1457.48 1570.48 1461.04 Q1568.67 1464.58 1568.67 1471.71 Q1568.67 1478.82 1570.48 1482.38 Q1572.31 1485.92 1575.92 1485.92 Q1579.55 1485.92 1581.36 1482.38 Q1583.19 1478.82 1583.19 1471.71 Q1583.19 1464.58 1581.36 1461.04 Q1579.55 1457.48 1575.92 1457.48 M1575.92 1453.77 Q1581.73 1453.77 1584.78 1458.38 Q1587.86 1462.96 1587.86 1471.71 Q1587.86 1480.44 1584.78 1485.04 Q1581.73 1489.63 1575.92 1489.63 Q1570.11 1489.63 1567.03 1485.04 Q1563.97 1480.44 1563.97 1471.71 Q1563.97 1462.96 1567.03 1458.38 Q1570.11 1453.77 1575.92 1453.77 Z" fill="#f8f8f2" fill-rule="nonzero" fill-opacity="1"></path><path clip-path="url(#clip250)" d="M1624.25 1463.49 L1613.67 1474.12 L1624.25 1484.7 L1621.5 1487.5 L1610.87 1476.87 L1600.25 1487.5 L1597.52 1484.7 L1608.07 1474.12 L1597.52 1463.49 L1600.25 1460.69 L1610.87 1471.32 L1621.5 1460.69 L1624.25 1463.49 Z" fill="#f8f8f2" fill-rule="nonzero" fill-opacity="1"></path><path clip-path="url(#clip250)" d="M1636.61 1485.02 L1644.25 1485.02 L1644.25 1458.66 L1635.94 1460.32 L1635.94 1456.06 L1644.21 1454.4 L1648.88 1454.4 L1648.88 1485.02 L1656.52 1485.02 L1656.52 1488.96 L1636.61 1488.96 L1636.61 1485.02 Z" fill="#f8f8f2" fill-rule="nonzero" fill-opacity="1"></path><path clip-path="url(#clip250)" d="M1675.96 1457.48 Q1672.35 1457.48 1670.52 1461.04 Q1668.72 1464.58 1668.72 1471.71 Q1668.72 1478.82 1670.52 1482.38 Q1672.35 1485.92 1675.96 1485.92 Q1679.6 1485.92 1681.4 1482.38 Q1683.23 1478.82 1683.23 1471.71 Q1683.23 1464.58 1681.4 1461.04 Q1679.6 1457.48 1675.96 1457.48 M1675.96 1453.77 Q1681.77 1453.77 1684.83 1458.38 Q1687.91 1462.96 1687.91 1471.71 Q1687.91 1480.44 1684.83 1485.04 Q1681.77 1489.63 1675.96 1489.63 Q1670.15 1489.63 1667.08 1485.04 Q1664.02 1480.44 1664.02 1471.71 Q1664.02 1462.96 1667.08 1458.38 Q1670.15 1453.77 1675.96 1453.77 Z" fill="#f8f8f2" fill-rule="nonzero" fill-opacity="1"></path><path clip-path="url(#clip250)" d="M1689.09 1433.47 L1704.01 1433.47 L1704.01 1436.66 L1692.57 1436.66 L1692.57 1443.55 Q1693.4 1443.27 1694.23 1443.13 Q1695.06 1442.98 1695.88 1442.98 Q1700.59 1442.98 1703.33 1445.56 Q1706.08 1448.14 1706.08 1452.54 Q1706.08 1457.07 1703.26 1459.59 Q1700.43 1462.09 1695.3 1462.09 Q1693.53 1462.09 1691.69 1461.79 Q1689.86 1461.49 1687.91 1460.89 L1687.91 1457.07 Q1689.6 1457.99 1691.41 1458.44 Q1693.21 1458.89 1695.23 1458.89 Q1698.48 1458.89 1700.38 1457.18 Q1702.28 1455.47 1702.28 1452.54 Q1702.28 1449.6 1700.38 1447.89 Q1698.48 1446.18 1695.23 1446.18 Q1693.7 1446.18 1692.18 1446.52 Q1690.67 1446.86 1689.09 1447.57 L1689.09 1433.47 Z" fill="#f8f8f2" fill-rule="nonzero" fill-opacity="1"></path><path clip-path="url(#clip250)" d="M1768.94 1485.02 L1776.58 1485.02 L1776.58 1458.66 L1768.27 1460.32 L1768.27 1456.06 L1776.53 1454.4 L1781.21 1454.4 L1781.21 1485.02 L1788.85 1485.02 L1788.85 1488.96 L1768.94 1488.96 L1768.94 1485.02 Z" fill="#f8f8f2" fill-rule="nonzero" fill-opacity="1"></path><path clip-path="url(#clip250)" d="M1798.29 1483.08 L1803.17 1483.08 L1803.17 1488.96 L1798.29 1488.96 L1798.29 1483.08 Z" fill="#f8f8f2" fill-rule="nonzero" fill-opacity="1"></path><path clip-path="url(#clip250)" d="M1817.39 1485.02 L1833.71 1485.02 L1833.71 1488.96 L1811.76 1488.96 L1811.76 1485.02 Q1814.42 1482.27 1819.01 1477.64 Q1823.61 1472.98 1824.79 1471.64 Q1827.04 1469.12 1827.92 1467.38 Q1828.82 1465.62 1828.82 1463.93 Q1828.82 1461.18 1826.88 1459.44 Q1824.96 1457.71 1821.85 1457.71 Q1819.66 1457.71 1817.2 1458.47 Q1814.77 1459.23 1811.99 1460.79 L1811.99 1456.06 Q1814.82 1454.93 1817.27 1454.35 Q1819.73 1453.77 1821.76 1453.77 Q1827.13 1453.77 1830.33 1456.46 Q1833.52 1459.14 1833.52 1463.63 Q1833.52 1465.76 1832.71 1467.68 Q1831.92 1469.58 1829.82 1472.17 Q1829.24 1472.85 1826.14 1476.06 Q1823.04 1479.26 1817.39 1485.02 Z" fill="#f8f8f2" fill-rule="nonzero" fill-opacity="1"></path><path clip-path="url(#clip250)" d="M1853.52 1457.48 Q1849.91 1457.48 1848.08 1461.04 Q1846.28 1464.58 1846.28 1471.71 Q1846.28 1478.82 1848.08 1482.38 Q1849.91 1485.92 1853.52 1485.92 Q1857.16 1485.92 1858.96 1482.38 Q1860.79 1478.82 1860.79 1471.71 Q1860.79 1464.58 1858.96 1461.04 Q1857.16 1457.48 1853.52 1457.48 M1853.52 1453.77 Q1859.33 1453.77 1862.39 1458.38 Q1865.47 1462.96 1865.47 1471.71 Q1865.47 1480.44 1862.39 1485.04 Q1859.33 1489.63 1853.52 1489.63 Q1847.71 1489.63 1844.63 1485.04 Q1841.58 1480.44 1841.58 1471.71 Q1841.58 1462.96 1844.63 1458.38 Q1847.71 1453.77 1853.52 1453.77 Z" fill="#f8f8f2" fill-rule="nonzero" fill-opacity="1"></path><path clip-path="url(#clip250)" d="M1901.85 1463.49 L1891.28 1474.12 L1901.85 1484.7 L1899.1 1487.5 L1888.47 1476.87 L1877.85 1487.5 L1875.12 1484.7 L1885.67 1474.12 L1875.12 1463.49 L1877.85 1460.69 L1888.47 1471.32 L1899.1 1460.69 L1901.85 1463.49 Z" fill="#f8f8f2" fill-rule="nonzero" fill-opacity="1"></path><path clip-path="url(#clip250)" d="M1914.22 1485.02 L1921.85 1485.02 L1921.85 1458.66 L1913.54 1460.32 L1913.54 1456.06 L1921.81 1454.4 L1926.48 1454.4 L1926.48 1485.02 L1934.12 1485.02 L1934.12 1488.96 L1914.22 1488.96 L1914.22 1485.02 Z" fill="#f8f8f2" fill-rule="nonzero" fill-opacity="1"></path><path clip-path="url(#clip250)" d="M1953.57 1457.48 Q1949.96 1457.48 1948.13 1461.04 Q1946.32 1464.58 1946.32 1471.71 Q1946.32 1478.82 1948.13 1482.38 Q1949.96 1485.92 1953.57 1485.92 Q1957.2 1485.92 1959.01 1482.38 Q1960.84 1478.82 1960.84 1471.71 Q1960.84 1464.58 1959.01 1461.04 Q1957.2 1457.48 1953.57 1457.48 M1953.57 1453.77 Q1959.38 1453.77 1962.43 1458.38 Q1965.51 1462.96 1965.51 1471.71 Q1965.51 1480.44 1962.43 1485.04 Q1959.38 1489.63 1953.57 1489.63 Q1947.76 1489.63 1944.68 1485.04 Q1941.62 1480.44 1941.62 1471.71 Q1941.62 1462.96 1944.68 1458.38 Q1947.76 1453.77 1953.57 1453.77 Z" fill="#f8f8f2" fill-rule="nonzero" fill-opacity="1"></path><path clip-path="url(#clip250)" d="M1966.7 1433.47 L1981.61 1433.47 L1981.61 1436.66 L1970.18 1436.66 L1970.18 1443.55 Q1971 1443.27 1971.83 1443.13 Q1972.66 1442.98 1973.49 1442.98 Q1978.19 1442.98 1980.93 1445.56 Q1983.68 1448.14 1983.68 1452.54 Q1983.68 1457.07 1980.86 1459.59 Q1978.04 1462.09 1972.9 1462.09 Q1971.14 1462.09 1969.29 1461.79 Q1967.47 1461.49 1965.51 1460.89 L1965.51 1457.07 Q1967.2 1457.99 1969.01 1458.44 Q1970.82 1458.89 1972.83 1458.89 Q1976.08 1458.89 1977.98 1457.18 Q1979.88 1455.47 1979.88 1452.54 Q1979.88 1449.6 1977.98 1447.89 Q1976.08 1446.18 1972.83 1446.18 Q1971.3 1446.18 1969.78 1446.52 Q1968.28 1446.86 1966.7 1447.57 L1966.7 1433.47 Z" fill="#f8f8f2" fill-rule="nonzero" fill-opacity="1"></path><path clip-path="url(#clip250)" d="M2046.54 1485.02 L2054.18 1485.02 L2054.18 1458.66 L2045.87 1460.32 L2045.87 1456.06 L2054.13 1454.4 L2058.81 1454.4 L2058.81 1485.02 L2066.45 1485.02 L2066.45 1488.96 L2046.54 1488.96 L2046.54 1485.02 Z" fill="#f8f8f2" fill-rule="nonzero" fill-opacity="1"></path><path clip-path="url(#clip250)" d="M2075.89 1483.08 L2080.78 1483.08 L2080.78 1488.96 L2075.89 1488.96 L2075.89 1483.08 Z" fill="#f8f8f2" fill-rule="nonzero" fill-opacity="1"></path><path clip-path="url(#clip250)" d="M2103.81 1458.47 L2092 1476.92 L2103.81 1476.92 L2103.81 1458.47 M2102.58 1454.4 L2108.46 1454.4 L2108.46 1476.92 L2113.39 1476.92 L2113.39 1480.81 L2108.46 1480.81 L2108.46 1488.96 L2103.81 1488.96 L2103.81 1480.81 L2088.21 1480.81 L2088.21 1476.29 L2102.58 1454.4 Z" fill="#f8f8f2" fill-rule="nonzero" fill-opacity="1"></path><path clip-path="url(#clip250)" d="M2131.12 1457.48 Q2127.51 1457.48 2125.68 1461.04 Q2123.88 1464.58 2123.88 1471.71 Q2123.88 1478.82 2125.68 1482.38 Q2127.51 1485.92 2131.12 1485.92 Q2134.76 1485.92 2136.56 1482.38 Q2138.39 1478.82 2138.39 1471.71 Q2138.39 1464.58 2136.56 1461.04 Q2134.76 1457.48 2131.12 1457.48 M2131.12 1453.77 Q2136.93 1453.77 2139.99 1458.38 Q2143.07 1462.96 2143.07 1471.71 Q2143.07 1480.44 2139.99 1485.04 Q2136.93 1489.63 2131.12 1489.63 Q2125.31 1489.63 2122.24 1485.04 Q2119.18 1480.44 2119.18 1471.71 Q2119.18 1462.96 2122.24 1458.38 Q2125.31 1453.77 2131.12 1453.77 Z" fill="#f8f8f2" fill-rule="nonzero" fill-opacity="1"></path><path clip-path="url(#clip250)" d="M2179.46 1463.49 L2168.88 1474.12 L2179.46 1484.7 L2176.7 1487.5 L2166.08 1476.87 L2155.45 1487.5 L2152.72 1484.7 L2163.28 1474.12 L2152.72 1463.49 L2155.45 1460.69 L2166.08 1471.32 L2176.7 1460.69 L2179.46 1463.49 Z" fill="#f8f8f2" fill-rule="nonzero" fill-opacity="1"></path><path clip-path="url(#clip250)" d="M2191.82 1485.02 L2199.46 1485.02 L2199.46 1458.66 L2191.15 1460.32 L2191.15 1456.06 L2199.41 1454.4 L2204.09 1454.4 L2204.09 1485.02 L2211.73 1485.02 L2211.73 1488.96 L2191.82 1488.96 L2191.82 1485.02 Z" fill="#f8f8f2" fill-rule="nonzero" fill-opacity="1"></path><path clip-path="url(#clip250)" d="M2231.17 1457.48 Q2227.56 1457.48 2225.73 1461.04 Q2223.92 1464.58 2223.92 1471.71 Q2223.92 1478.82 2225.73 1482.38 Q2227.56 1485.92 2231.17 1485.92 Q2234.8 1485.92 2236.61 1482.38 Q2238.44 1478.82 2238.44 1471.71 Q2238.44 1464.58 2236.61 1461.04 Q2234.8 1457.48 2231.17 1457.48 M2231.17 1453.77 Q2236.98 1453.77 2240.04 1458.38 Q2243.11 1462.96 2243.11 1471.71 Q2243.11 1480.44 2240.04 1485.04 Q2236.98 1489.63 2231.17 1489.63 Q2225.36 1489.63 2222.28 1485.04 Q2219.23 1480.44 2219.23 1471.71 Q2219.23 1462.96 2222.28 1458.38 Q2225.36 1453.77 2231.17 1453.77 Z" fill="#f8f8f2" fill-rule="nonzero" fill-opacity="1"></path><path clip-path="url(#clip250)" d="M2244.3 1433.47 L2259.21 1433.47 L2259.21 1436.66 L2247.78 1436.66 L2247.78 1443.55 Q2248.61 1443.27 2249.43 1443.13 Q2250.26 1442.98 2251.09 1442.98 Q2255.79 1442.98 2258.54 1445.56 Q2261.28 1448.14 2261.28 1452.54 Q2261.28 1457.07 2258.46 1459.59 Q2255.64 1462.09 2250.51 1462.09 Q2248.74 1462.09 2246.89 1461.79 Q2245.07 1461.49 2243.11 1460.89 L2243.11 1457.07 Q2244.81 1457.99 2246.61 1458.44 Q2248.42 1458.89 2250.43 1458.89 Q2253.68 1458.89 2255.58 1457.18 Q2257.48 1455.47 2257.48 1452.54 Q2257.48 1449.6 2255.58 1447.89 Q2253.68 1446.18 2250.43 1446.18 Q2248.91 1446.18 2247.38 1446.52 Q2245.88 1446.86 2244.3 1447.57 L2244.3 1433.47 Z" fill="#f8f8f2" fill-rule="nonzero" fill-opacity="1"></path><path clip-path="url(#clip250)" d="M1301 1552.67 L1301 1574.19 L1295.14 1574.19 L1295.14 1552.86 Q1295.14 1547.8 1293.17 1545.29 Q1291.19 1542.77 1287.25 1542.77 Q1282.5 1542.77 1279.77 1545.79 Q1277.03 1548.82 1277.03 1554.04 L1277.03 1574.19 L1271.14 1574.19 L1271.14 1538.54 L1277.03 1538.54 L1277.03 1544.08 Q1279.13 1540.86 1281.96 1539.27 Q1284.83 1537.68 1288.55 1537.68 Q1294.69 1537.68 1297.84 1541.5 Q1301 1545.29 1301 1552.67 Z" fill="#f8f8f2" fill-rule="nonzero" fill-opacity="1"></path><polyline clip-path="url(#clip250)" style="stroke:#f8f8f2; stroke-linecap:round; stroke-linejoin:round; stroke-width:4; stroke-opacity:1; fill:none" points="219.38,1410.9 219.38,47.2441 "></polyline>
<polyline clip-path="url(#clip250)" style="stroke:#f8f8f2; stroke-linecap:round; stroke-linejoin:round; stroke-width:4; stroke-opacity:1; fill:none" points="219.38,1373.75 238.278,1373.75 "></polyline>
<polyline clip-path="url(#clip250)" style="stroke:#f8f8f2; stroke-linecap:round; stroke-linejoin:round; stroke-width:4; stroke-opacity:1; fill:none" points="219.38,1053.44 238.278,1053.44 "></polyline>
<polyline clip-path="url(#clip250)" style="stroke:#f8f8f2; stroke-linecap:round; stroke-linejoin:round; stroke-width:4; stroke-opacity:1; fill:none" points="219.38,733.121 238.278,733.121 "></polyline>
<polyline clip-path="url(#clip250)" style="stroke:#f8f8f2; stroke-linecap:round; stroke-linejoin:round; stroke-width:4; stroke-opacity:1; fill:none" points="219.38,412.806 238.278,412.806 "></polyline>
<polyline clip-path="url(#clip250)" style="stroke:#f8f8f2; stroke-linecap:round; stroke-linejoin:round; stroke-width:4; stroke-opacity:1; fill:none" points="219.38,92.4899 238.278,92.4899 "></polyline>
<path clip-path="url(#clip250)" d="M126.205 1359.55 Q122.593 1359.55 120.765 1363.12 Q118.959 1366.66 118.959 1373.79 Q118.959 1380.89 120.765 1384.46 Q122.593 1388 126.205 1388 Q129.839 1388 131.644 1384.46 Q133.473 1380.89 133.473 1373.79 Q133.473 1366.66 131.644 1363.12 Q129.839 1359.55 126.205 1359.55 M126.205 1355.85 Q132.015 1355.85 135.07 1360.45 Q138.149 1365.04 138.149 1373.79 Q138.149 1382.51 135.07 1387.12 Q132.015 1391.7 126.205 1391.7 Q120.394 1391.7 117.316 1387.12 Q114.26 1382.51 114.26 1373.79 Q114.26 1365.04 117.316 1360.45 Q120.394 1355.85 126.205 1355.85 Z" fill="#f8f8f2" fill-rule="nonzero" fill-opacity="1"></path><path clip-path="url(#clip250)" d="M146.366 1385.15 L151.251 1385.15 L151.251 1391.03 L146.366 1391.03 L146.366 1385.15 Z" fill="#f8f8f2" fill-rule="nonzero" fill-opacity="1"></path><path clip-path="url(#clip250)" d="M171.436 1359.55 Q167.825 1359.55 165.996 1363.12 Q164.19 1366.66 164.19 1373.79 Q164.19 1380.89 165.996 1384.46 Q167.825 1388 171.436 1388 Q175.07 1388 176.876 1384.46 Q178.704 1380.89 178.704 1373.79 Q178.704 1366.66 176.876 1363.12 Q175.07 1359.55 171.436 1359.55 M171.436 1355.85 Q177.246 1355.85 180.301 1360.45 Q183.38 1365.04 183.38 1373.79 Q183.38 1382.51 180.301 1387.12 Q177.246 1391.7 171.436 1391.7 Q165.626 1391.7 162.547 1387.12 Q159.491 1382.51 159.491 1373.79 Q159.491 1365.04 162.547 1360.45 Q165.626 1355.85 171.436 1355.85 Z" fill="#f8f8f2" fill-rule="nonzero" fill-opacity="1"></path><path clip-path="url(#clip250)" d="M127.2 1039.24 Q123.589 1039.24 121.76 1042.8 Q119.955 1046.34 119.955 1053.47 Q119.955 1060.58 121.76 1064.14 Q123.589 1067.68 127.2 1067.68 Q130.834 1067.68 132.64 1064.14 Q134.468 1060.58 134.468 1053.47 Q134.468 1046.34 132.64 1042.8 Q130.834 1039.24 127.2 1039.24 M127.2 1035.53 Q133.01 1035.53 136.066 1040.14 Q139.144 1044.72 139.144 1053.47 Q139.144 1062.2 136.066 1066.81 Q133.01 1071.39 127.2 1071.39 Q121.39 1071.39 118.311 1066.81 Q115.256 1062.2 115.256 1053.47 Q115.256 1044.72 118.311 1040.14 Q121.39 1035.53 127.2 1035.53 Z" fill="#f8f8f2" fill-rule="nonzero" fill-opacity="1"></path><path clip-path="url(#clip250)" d="M147.362 1064.84 L152.246 1064.84 L152.246 1070.72 L147.362 1070.72 L147.362 1064.84 Z" fill="#f8f8f2" fill-rule="nonzero" fill-opacity="1"></path><path clip-path="url(#clip250)" d="M162.477 1036.16 L180.834 1036.16 L180.834 1040.09 L166.76 1040.09 L166.76 1048.56 Q167.778 1048.22 168.797 1048.06 Q169.815 1047.87 170.834 1047.87 Q176.621 1047.87 180.001 1051.04 Q183.38 1054.21 183.38 1059.63 Q183.38 1065.21 179.908 1068.31 Q176.436 1071.39 170.116 1071.39 Q167.94 1071.39 165.672 1071.02 Q163.427 1070.65 161.019 1069.91 L161.019 1065.21 Q163.102 1066.34 165.325 1066.9 Q167.547 1067.45 170.024 1067.45 Q174.028 1067.45 176.366 1065.35 Q178.704 1063.24 178.704 1059.63 Q178.704 1056.02 176.366 1053.91 Q174.028 1051.81 170.024 1051.81 Q168.149 1051.81 166.274 1052.22 Q164.422 1052.64 162.477 1053.52 L162.477 1036.16 Z" fill="#f8f8f2" fill-rule="nonzero" fill-opacity="1"></path><path clip-path="url(#clip250)" d="M117.015 746.466 L124.654 746.466 L124.654 720.101 L116.343 721.767 L116.343 717.508 L124.607 715.841 L129.283 715.841 L129.283 746.466 L136.922 746.466 L136.922 750.401 L117.015 750.401 L117.015 746.466 Z" fill="#f8f8f2" fill-rule="nonzero" fill-opacity="1"></path><path clip-path="url(#clip250)" d="M146.366 744.522 L151.251 744.522 L151.251 750.401 L146.366 750.401 L146.366 744.522 Z" fill="#f8f8f2" fill-rule="nonzero" fill-opacity="1"></path><path clip-path="url(#clip250)" d="M171.436 718.92 Q167.825 718.92 165.996 722.485 Q164.19 726.026 164.19 733.156 Q164.19 740.263 165.996 743.827 Q167.825 747.369 171.436 747.369 Q175.07 747.369 176.876 743.827 Q178.704 740.263 178.704 733.156 Q178.704 726.026 176.876 722.485 Q175.07 718.92 171.436 718.92 M171.436 715.216 Q177.246 715.216 180.301 719.823 Q183.38 724.406 183.38 733.156 Q183.38 741.883 180.301 746.489 Q177.246 751.073 171.436 751.073 Q165.626 751.073 162.547 746.489 Q159.491 741.883 159.491 733.156 Q159.491 724.406 162.547 719.823 Q165.626 715.216 171.436 715.216 Z" fill="#f8f8f2" fill-rule="nonzero" fill-opacity="1"></path><path clip-path="url(#clip250)" d="M118.01 426.15 L125.649 426.15 L125.649 399.785 L117.339 401.451 L117.339 397.192 L125.603 395.526 L130.279 395.526 L130.279 426.15 L137.917 426.15 L137.917 430.086 L118.01 430.086 L118.01 426.15 Z" fill="#f8f8f2" fill-rule="nonzero" fill-opacity="1"></path><path clip-path="url(#clip250)" d="M147.362 424.206 L152.246 424.206 L152.246 430.086 L147.362 430.086 L147.362 424.206 Z" fill="#f8f8f2" fill-rule="nonzero" fill-opacity="1"></path><path clip-path="url(#clip250)" d="M162.477 395.526 L180.834 395.526 L180.834 399.461 L166.76 399.461 L166.76 407.933 Q167.778 407.586 168.797 407.424 Q169.815 407.239 170.834 407.239 Q176.621 407.239 180.001 410.41 Q183.38 413.581 183.38 418.998 Q183.38 424.576 179.908 427.678 Q176.436 430.757 170.116 430.757 Q167.94 430.757 165.672 430.387 Q163.427 430.016 161.019 429.275 L161.019 424.576 Q163.102 425.711 165.325 426.266 Q167.547 426.822 170.024 426.822 Q174.028 426.822 176.366 424.715 Q178.704 422.609 178.704 418.998 Q178.704 415.387 176.366 413.28 Q174.028 411.174 170.024 411.174 Q168.149 411.174 166.274 411.59 Q164.422 412.007 162.477 412.887 L162.477 395.526 Z" fill="#f8f8f2" fill-rule="nonzero" fill-opacity="1"></path><path clip-path="url(#clip250)" d="M120.232 105.835 L136.552 105.835 L136.552 109.77 L114.607 109.77 L114.607 105.835 Q117.269 103.08 121.853 98.4505 Q126.459 93.7977 127.64 92.4551 Q129.885 89.932 130.765 88.1959 Q131.667 86.4366 131.667 84.7468 Q131.667 81.9922 129.723 80.2561 Q127.802 78.52 124.7 78.52 Q122.501 78.52 120.047 79.2839 Q117.617 80.0478 114.839 81.5987 L114.839 76.8765 Q117.663 75.7423 120.117 75.1636 Q122.57 74.5849 124.607 74.5849 Q129.978 74.5849 133.172 77.27 Q136.367 79.9552 136.367 84.4459 Q136.367 86.5755 135.556 88.4968 Q134.769 90.395 132.663 92.9875 Q132.084 93.6588 128.982 96.8764 Q125.88 100.071 120.232 105.835 Z" fill="#f8f8f2" fill-rule="nonzero" fill-opacity="1"></path><path clip-path="url(#clip250)" d="M146.366 103.89 L151.251 103.89 L151.251 109.77 L146.366 109.77 L146.366 103.89 Z" fill="#f8f8f2" fill-rule="nonzero" fill-opacity="1"></path><path clip-path="url(#clip250)" d="M171.436 78.2885 Q167.825 78.2885 165.996 81.8533 Q164.19 85.395 164.19 92.5246 Q164.19 99.631 165.996 103.196 Q167.825 106.737 171.436 106.737 Q175.07 106.737 176.876 103.196 Q178.704 99.631 178.704 92.5246 Q178.704 85.395 176.876 81.8533 Q175.07 78.2885 171.436 78.2885 M171.436 74.5849 Q177.246 74.5849 180.301 79.1913 Q183.38 83.7746 183.38 92.5246 Q183.38 101.251 180.301 105.858 Q177.246 110.441 171.436 110.441 Q165.626 110.441 162.547 105.858 Q159.491 101.251 159.491 92.5246 Q159.491 83.7746 162.547 79.1913 Q165.626 74.5849 171.436 74.5849 Z" fill="#f8f8f2" fill-rule="nonzero" fill-opacity="1"></path><path clip-path="url(#clip250)" d="M18.2347 841.616 L28.3562 841.616 L28.3562 829.553 L32.9077 829.553 L32.9077 841.616 L52.2594 841.616 Q56.6199 841.616 57.8613 840.438 Q59.1026 839.229 59.1026 835.569 L59.1026 829.553 L64.0042 829.553 L64.0042 835.569 Q64.0042 842.348 61.4897 844.926 Q58.9434 847.504 52.2594 847.504 L32.9077 847.504 L32.9077 851.801 L28.3562 851.801 L28.3562 847.504 L18.2347 847.504 L18.2347 841.616 Z" fill="#f8f8f2" fill-rule="nonzero" fill-opacity="1"></path><path clip-path="url(#clip250)" d="M28.3562 821.851 L28.3562 815.994 L64.0042 815.994 L64.0042 821.851 L28.3562 821.851 M14.479 821.851 L14.479 815.994 L21.895 815.994 L21.895 821.851 L14.479 821.851 Z" fill="#f8f8f2" fill-rule="nonzero" fill-opacity="1"></path><path clip-path="url(#clip250)" d="M35.1993 775.986 Q31.2526 773.789 29.3747 770.734 Q27.4968 767.678 27.4968 763.541 Q27.4968 757.971 31.4117 754.947 Q35.2948 751.923 42.4881 751.923 L64.0042 751.923 L64.0042 757.812 L42.679 757.812 Q37.5546 757.812 35.072 759.626 Q32.5894 761.44 32.5894 765.164 Q32.5894 769.715 35.6131 772.357 Q38.6368 774.999 43.8567 774.999 L64.0042 774.999 L64.0042 780.887 L42.679 780.887 Q37.5228 780.887 35.072 782.701 Q32.5894 784.516 32.5894 788.303 Q32.5894 792.791 35.6449 795.433 Q38.6686 798.075 43.8567 798.075 L64.0042 798.075 L64.0042 803.963 L28.3562 803.963 L28.3562 798.075 L33.8944 798.075 Q30.616 796.069 29.0564 793.269 Q27.4968 790.468 27.4968 786.616 Q27.4968 782.733 29.4702 780.028 Q31.4436 777.291 35.1993 775.986 Z" fill="#f8f8f2" fill-rule="nonzero" fill-opacity="1"></path><path clip-path="url(#clip250)" d="M44.7161 709.75 L47.5806 709.75 L47.5806 736.677 Q53.6281 736.295 56.8109 733.049 Q59.9619 729.771 59.9619 723.946 Q59.9619 720.572 59.1344 717.421 Q58.3069 714.238 56.6518 711.119 L62.1899 711.119 Q63.5267 714.27 64.227 717.58 Q64.9272 720.89 64.9272 724.296 Q64.9272 732.826 59.9619 737.823 Q54.9967 742.788 46.5303 742.788 Q37.7774 742.788 32.6531 738.078 Q27.4968 733.335 27.4968 725.315 Q27.4968 718.121 32.1438 713.952 Q36.7589 709.75 44.7161 709.75 M42.9973 715.607 Q38.1912 715.671 35.3266 718.312 Q32.4621 720.922 32.4621 725.251 Q32.4621 730.153 35.2312 733.113 Q38.0002 736.041 43.0292 736.486 L42.9973 715.607 Z" fill="#f8f8f2" fill-rule="nonzero" fill-opacity="1"></path><path clip-path="url(#clip250)" d="M14.5426 665.35 Q21.8632 669.615 29.0246 671.684 Q36.186 673.752 43.5384 673.752 Q50.8908 673.752 58.1159 671.684 Q65.3091 669.583 72.5979 665.35 L72.5979 670.442 Q65.1182 675.216 57.8931 677.604 Q50.668 679.959 43.5384 679.959 Q36.4406 679.959 29.2474 677.604 Q22.0542 675.248 14.5426 670.442 L14.5426 665.35 Z" fill="#f8f8f2" fill-rule="nonzero" fill-opacity="1"></path><path clip-path="url(#clip250)" d="M29.4065 631.261 L34.9447 631.261 Q33.6716 633.744 33.035 636.418 Q32.3984 639.091 32.3984 641.956 Q32.3984 646.316 33.7352 648.512 Q35.072 650.677 37.7456 650.677 Q39.7826 650.677 40.9603 649.117 Q42.1061 647.557 43.1565 642.847 L43.6021 640.842 Q44.9389 634.603 47.3897 631.993 Q49.8086 629.352 54.1691 629.352 Q59.1344 629.352 62.0308 633.298 Q64.9272 637.213 64.9272 644.088 Q64.9272 646.953 64.3543 650.072 Q63.8132 653.159 62.6992 656.597 L56.6518 656.597 Q58.3387 653.35 59.198 650.199 Q60.0256 647.048 60.0256 643.961 Q60.0256 639.823 58.6251 637.595 Q57.1929 635.367 54.6147 635.367 Q52.2276 635.367 50.9545 636.99 Q49.6813 638.582 48.5037 644.025 L48.0262 646.062 Q46.8804 651.504 44.5251 653.923 Q42.138 656.342 38.0002 656.342 Q32.9713 656.342 30.2341 652.777 Q27.4968 649.213 27.4968 642.656 Q27.4968 639.409 27.9743 636.545 Q28.4517 633.68 29.4065 631.261 Z" fill="#f8f8f2" fill-rule="nonzero" fill-opacity="1"></path><path clip-path="url(#clip250)" d="M14.5426 620.949 L14.5426 615.856 Q22.0542 611.082 29.2474 608.727 Q36.4406 606.34 43.5384 606.34 Q50.668 606.34 57.8931 608.727 Q65.1182 611.082 72.5979 615.856 L72.5979 620.949 Q65.3091 616.716 58.1159 614.647 Q50.8908 612.546 43.5384 612.546 Q36.186 612.546 29.0246 614.647 Q21.8632 616.716 14.5426 620.949 Z" fill="#f8f8f2" fill-rule="nonzero" fill-opacity="1"></path><polyline clip-path="url(#clip252)" style="stroke:#8be9fd; stroke-linecap:round; stroke-linejoin:round; stroke-width:4; stroke-opacity:1; fill:none" points="279.759,1372.3 349.159,1368.08 418.56,1360.57 487.961,1351.18 557.361,1338.86 626.762,1322.52 696.163,1304.16 765.563,1282.81 834.964,1259.2 904.364,1230.02 973.765,1202.45 1043.17,1167.72 1112.57,1131.06 1181.97,1094.77 1251.37,1049.13 1320.77,1005.54 1390.17,961.362 1459.57,909.767 1528.97,858.302 1598.37,804.314 1667.77,735.72 1737.17,678.094 1806.57,619.803 1875.97,558.007 1945.37,469.453 2014.77,400.589 2084.18,336.901 2153.58,264.096 2222.98,186.924 2292.38,85.838 "></polyline>
<path clip-path="url(#clip250)" d="M290.493 196.379 L821.097 196.379 L821.097 92.6992 L290.493 92.6992  Z" fill="#282a36" fill-rule="evenodd" fill-opacity="1"></path>
<polyline clip-path="url(#clip250)" style="stroke:#f8f8f2; stroke-linecap:round; stroke-linejoin:round; stroke-width:4; stroke-opacity:1; fill:none" points="290.493,196.379 821.097,196.379 821.097,92.6992 290.493,92.6992 290.493,196.379 "></polyline>
<polyline clip-path="url(#clip250)" style="stroke:#8be9fd; stroke-linecap:round; stroke-linejoin:round; stroke-width:4; stroke-opacity:1; fill:none" points="314.197,144.539 456.422,144.539 "></polyline>
<path clip-path="url(#clip250)" d="M480.126 135.893 L484.385 135.893 L484.385 161.819 L480.126 161.819 L480.126 135.893 M480.126 125.801 L484.385 125.801 L484.385 131.194 L480.126 131.194 L480.126 125.801 Z" fill="#f8f8f2" fill-rule="nonzero" fill-opacity="1"></path><path clip-path="url(#clip250)" d="M514.848 146.171 L514.848 161.819 L510.589 161.819 L510.589 146.31 Q510.589 142.629 509.154 140.801 Q507.719 138.972 504.848 138.972 Q501.399 138.972 499.408 141.171 Q497.418 143.37 497.418 147.166 L497.418 161.819 L493.135 161.819 L493.135 135.893 L497.418 135.893 L497.418 139.921 Q498.945 137.583 501.006 136.426 Q503.089 135.268 505.797 135.268 Q510.265 135.268 512.556 138.046 Q514.848 140.801 514.848 146.171 Z" fill="#f8f8f2" fill-rule="nonzero" fill-opacity="1"></path><path clip-path="url(#clip250)" d="M539.871 136.657 L539.871 140.685 Q538.066 139.759 536.121 139.296 Q534.177 138.833 532.093 138.833 Q528.922 138.833 527.325 139.805 Q525.751 140.778 525.751 142.722 Q525.751 144.204 526.885 145.06 Q528.019 145.893 531.445 146.657 L532.904 146.981 Q537.441 147.954 539.339 149.736 Q541.26 151.495 541.26 154.666 Q541.26 158.278 538.39 160.384 Q535.542 162.49 530.542 162.49 Q528.459 162.49 526.191 162.074 Q523.945 161.68 521.445 160.87 L521.445 156.472 Q523.806 157.699 526.098 158.324 Q528.39 158.926 530.635 158.926 Q533.644 158.926 535.265 157.907 Q536.885 156.866 536.885 154.991 Q536.885 153.254 535.704 152.328 Q534.547 151.403 530.589 150.546 L529.107 150.199 Q525.149 149.366 523.39 147.653 Q521.63 145.916 521.63 142.907 Q521.63 139.25 524.223 137.259 Q526.816 135.268 531.584 135.268 Q533.945 135.268 536.029 135.616 Q538.112 135.963 539.871 136.657 Z" fill="#f8f8f2" fill-rule="nonzero" fill-opacity="1"></path><path clip-path="url(#clip250)" d="M570.218 147.791 L570.218 149.875 L550.635 149.875 Q550.913 154.273 553.274 156.588 Q555.658 158.879 559.894 158.879 Q562.348 158.879 564.64 158.278 Q566.954 157.676 569.223 156.472 L569.223 160.5 Q566.931 161.472 564.524 161.981 Q562.116 162.49 559.64 162.49 Q553.436 162.49 549.802 158.879 Q546.191 155.268 546.191 149.111 Q546.191 142.745 549.616 139.018 Q553.066 135.268 558.899 135.268 Q564.13 135.268 567.163 138.648 Q570.218 142.004 570.218 147.791 M565.959 146.541 Q565.913 143.046 563.991 140.963 Q562.093 138.879 558.945 138.879 Q555.38 138.879 553.228 140.893 Q551.098 142.907 550.774 146.565 L565.959 146.541 Z" fill="#f8f8f2" fill-rule="nonzero" fill-opacity="1"></path><path clip-path="url(#clip250)" d="M592.232 139.875 Q591.514 139.458 590.658 139.273 Q589.825 139.065 588.806 139.065 Q585.195 139.065 583.251 141.426 Q581.329 143.764 581.329 148.162 L581.329 161.819 L577.047 161.819 L577.047 135.893 L581.329 135.893 L581.329 139.921 Q582.672 137.56 584.825 136.426 Q586.977 135.268 590.056 135.268 Q590.496 135.268 591.028 135.338 Q591.561 135.384 592.209 135.5 L592.232 139.875 Z" fill="#f8f8f2" fill-rule="nonzero" fill-opacity="1"></path><path clip-path="url(#clip250)" d="M600.912 128.532 L600.912 135.893 L609.686 135.893 L609.686 139.204 L600.912 139.204 L600.912 153.278 Q600.912 156.449 601.769 157.352 Q602.649 158.254 605.311 158.254 L609.686 158.254 L609.686 161.819 L605.311 161.819 Q600.38 161.819 598.505 159.99 Q596.63 158.139 596.63 153.278 L596.63 139.204 L593.505 139.204 L593.505 135.893 L596.63 135.893 L596.63 128.532 L600.912 128.532 Z" fill="#f8f8f2" fill-rule="nonzero" fill-opacity="1"></path><path clip-path="url(#clip250)" d="M615.287 135.893 L619.547 135.893 L619.547 161.819 L615.287 161.819 L615.287 135.893 M615.287 125.801 L619.547 125.801 L619.547 131.194 L615.287 131.194 L615.287 125.801 Z" fill="#f8f8f2" fill-rule="nonzero" fill-opacity="1"></path><path clip-path="url(#clip250)" d="M638.505 138.879 Q635.079 138.879 633.088 141.565 Q631.097 144.227 631.097 148.879 Q631.097 153.532 633.065 156.217 Q635.056 158.879 638.505 158.879 Q641.908 158.879 643.898 156.194 Q645.889 153.509 645.889 148.879 Q645.889 144.273 643.898 141.588 Q641.908 138.879 638.505 138.879 M638.505 135.268 Q644.06 135.268 647.232 138.879 Q650.403 142.491 650.403 148.879 Q650.403 155.245 647.232 158.879 Q644.06 162.49 638.505 162.49 Q632.926 162.49 629.755 158.879 Q626.607 155.245 626.607 148.879 Q626.607 142.491 629.755 138.879 Q632.926 135.268 638.505 135.268 Z" fill="#f8f8f2" fill-rule="nonzero" fill-opacity="1"></path><path clip-path="url(#clip250)" d="M679.014 146.171 L679.014 161.819 L674.755 161.819 L674.755 146.31 Q674.755 142.629 673.319 140.801 Q671.884 138.972 669.014 138.972 Q665.565 138.972 663.574 141.171 Q661.583 143.37 661.583 147.166 L661.583 161.819 L657.301 161.819 L657.301 135.893 L661.583 135.893 L661.583 139.921 Q663.111 137.583 665.171 136.426 Q667.255 135.268 669.963 135.268 Q674.431 135.268 676.722 138.046 Q679.014 140.801 679.014 146.171 Z" fill="#f8f8f2" fill-rule="nonzero" fill-opacity="1"></path><path clip-path="url(#clip250)" d="M707.208 169.69 L707.208 173 L682.579 173 L682.579 169.69 L707.208 169.69 Z" fill="#f8f8f2" fill-rule="nonzero" fill-opacity="1"></path><path clip-path="url(#clip250)" d="M727.74 136.657 L727.74 140.685 Q725.935 139.759 723.991 139.296 Q722.046 138.833 719.963 138.833 Q716.791 138.833 715.194 139.805 Q713.62 140.778 713.62 142.722 Q713.62 144.204 714.754 145.06 Q715.889 145.893 719.315 146.657 L720.773 146.981 Q725.31 147.954 727.208 149.736 Q729.129 151.495 729.129 154.666 Q729.129 158.278 726.259 160.384 Q723.412 162.49 718.412 162.49 Q716.329 162.49 714.06 162.074 Q711.815 161.68 709.315 160.87 L709.315 156.472 Q711.676 157.699 713.967 158.324 Q716.259 158.926 718.504 158.926 Q721.514 158.926 723.134 157.907 Q724.754 156.866 724.754 154.991 Q724.754 153.254 723.574 152.328 Q722.416 151.403 718.458 150.546 L716.977 150.199 Q713.018 149.366 711.259 147.653 Q709.5 145.916 709.5 142.907 Q709.5 139.25 712.092 137.259 Q714.685 135.268 719.454 135.268 Q721.815 135.268 723.898 135.616 Q725.981 135.963 727.74 136.657 Z" fill="#f8f8f2" fill-rule="nonzero" fill-opacity="1"></path><path clip-path="url(#clip250)" d="M745.958 138.879 Q742.532 138.879 740.541 141.565 Q738.551 144.227 738.551 148.879 Q738.551 153.532 740.518 156.217 Q742.509 158.879 745.958 158.879 Q749.361 158.879 751.351 156.194 Q753.342 153.509 753.342 148.879 Q753.342 144.273 751.351 141.588 Q749.361 138.879 745.958 138.879 M745.958 135.268 Q751.514 135.268 754.685 138.879 Q757.856 142.491 757.856 148.879 Q757.856 155.245 754.685 158.879 Q751.514 162.49 745.958 162.49 Q740.379 162.49 737.208 158.879 Q734.06 155.245 734.06 148.879 Q734.06 142.491 737.208 138.879 Q740.379 135.268 745.958 135.268 Z" fill="#f8f8f2" fill-rule="nonzero" fill-opacity="1"></path><path clip-path="url(#clip250)" d="M779.939 139.875 Q779.222 139.458 778.365 139.273 Q777.532 139.065 776.513 139.065 Q772.902 139.065 770.958 141.426 Q769.037 143.764 769.037 148.162 L769.037 161.819 L764.754 161.819 L764.754 135.893 L769.037 135.893 L769.037 139.921 Q770.379 137.56 772.532 136.426 Q774.685 135.268 777.763 135.268 Q778.203 135.268 778.736 135.338 Q779.268 135.384 779.916 135.5 L779.939 139.875 Z" fill="#f8f8f2" fill-rule="nonzero" fill-opacity="1"></path><path clip-path="url(#clip250)" d="M788.62 128.532 L788.62 135.893 L797.393 135.893 L797.393 139.204 L788.62 139.204 L788.62 153.278 Q788.62 156.449 789.476 157.352 Q790.356 158.254 793.018 158.254 L797.393 158.254 L797.393 161.819 L793.018 161.819 Q788.087 161.819 786.212 159.99 Q784.337 158.139 784.337 153.278 L784.337 139.204 L781.212 139.204 L781.212 135.893 L784.337 135.893 L784.337 128.532 L788.62 128.532 Z" fill="#f8f8f2" fill-rule="nonzero" fill-opacity="1"></path></svg>